PathFileType	4	(X/Y/Z)	C:/Users/opensim2020/Desktop/walking_exp_matlab/subject01_walking05_straight_03.trc	
DataRate	CameraRate	NumFrames	NumMarkers	Units	OrigDataRate	OrigDataStartFrame	OrigNumFrames	
100.00	100.00	4	43	mm	100.00	2190	223	
Frame#	Time	LFHD			RFHD			LBHD			RBHD			C7			T10			CLAV			STRN			RBAK			LSHO			LUPA			LELB			LFRM			LWRA			LWRB			LFIN			RSHO			RUPA			RELB			RFRM			RWRA			RWRB			RFIN			LASI			RASI			LPSI			RPSI			LTHI			LKNE			LTIB			LANK			LHEE			LTOE			RTHI			RKNE			RTIB			RANK			RHEE			RTOE			*39			*40			*41			*42			
		X1	Y1	Z1	X2	Y2	Z2	X3	Y3	Z3	X4	Y4	Z4	X5	Y5	Z5	X6	Y6	Z6	X7	Y7	Z7	X8	Y8	Z8	X9	Y9	Z9	X10	Y10	Z10	X11	Y11	Z11	X12	Y12	Z12	X13	Y13	Z13	X14	Y14	Z14	X15	Y15	Z15	X16	Y16	Z16	X17	Y17	Z17	X18	Y18	Z18	X19	Y19	Z19	X20	Y20	Z20	X21	Y21	Z21	X22	Y22	Z22	X23	Y23	Z23	X24	Y24	Z24	X25	Y25	Z25	X26	Y26	Z26	X27	Y27	Z27	X28	Y28	Z28	X29	Y29	Z29	X30	Y30	Z30	X31	Y31	Z31	X32	Y32	Z32	X33	Y33	Z33	X34	Y34	Z34	X35	Y35	Z35	X36	Y36	Z36	X37	Y37	Z37	X38	Y38	Z38	X39	Y39	Z39	X40	Y40	Z40	X41	Y41	Z41	X42	Y42	Z42	X43	Y43	Z43	

112	1.110	-1115.59436	-167.85751	1677.76062	-1003.01147	-150.83676	1688.69470	-1101.77124	-275.47516	1615.00452	-982.07770	-260.49911	1624.75439	-1058.09631	-291.98004	1433.99805	-1046.73877	-327.20050	1142.52490	-1057.13684	-147.36252	1368.65942	-1060.94006	-104.02248	1212.98657	-979.38727	-346.55005	1239.96692	-1216.93616	-210.95534	1395.79395	-1304.78906	-223.89793	1212.53577	-1313.54932	-208.48883	1060.96118	-1338.06433	-132.61021	973.23529	-1322.64722	-15.23971	899.42267	-1343.01501	-64.35705	872.08081	-1356.55847	5.41895	827.93231	-907.06854	-214.37190	1399.54114	-805.91644	-285.59589	1204.58264	-800.93774	-291.71481	1081.47424	-764.14001	-278.11700	964.13531	-774.08221	-209.52216	838.46881	-737.05743	-254.45526	846.34161	-737.08997	-227.72281	763.25031	-1150.65259	-159.52115	930.72803	-934.70844	-156.90393	941.77075	-1093.60193	-344.52075	946.10071	-947.67181	-339.88281	949.88525	-1189.30017	-200.98528	595.96356	-1167.36670	-215.66571	462.87033	-1173.55347	-275.40158	282.16739	-1113.43176	-318.73032	69.85047	-1063.33777	-367.95956	42.42726	-1111.82983	-171.63501	33.50677	-858.52893	-112.99038	625.27594	-879.93463	-65.11338	472.52896	-878.17889	-148.78189	315.69992	-927.17224	-211.77933	120.71171	-985.92078	-258.48935	89.38779	-905.57404	-90.81718	51.95800	-1025.71399	-169.28783	1719.33606	-3101.93579	1973.12402	1023.33405	-3140.67529	2012.49536	1021.95038			 
113	1.120	-1114.84045	-158.65729	1677.45435	-1002.35962	-141.69637	1688.15759	-1101.09668	-266.34946	1614.90259	-981.39972	-251.42955	1624.50134	-1057.62842	-283.19183	1433.75427	-1046.44971	-318.72806	1142.29346	-1056.44373	-138.75867	1368.21057	-1060.91968	-95.54300	1212.51147	-979.30823	-338.08057	1239.61572	-1216.61047	-202.32347	1395.72656	-1304.68604	-214.35437	1212.65588	-1313.83032	-197.62927	1061.13220	-1338.41772	-119.84428	975.09033	-1323.29248	-0.91722	903.88013	-1343.33276	-49.43223	875.31812	-1357.17249	21.35320	832.83020	-906.63068	-205.82457	1398.87329	-805.91254	-278.17819	1204.04199	-801.11420	-284.69443	1081.06372	-764.37042	-272.04117	963.67450	-774.21509	-204.24361	837.55176	-737.37744	-249.08656	845.77631	-737.37195	-223.21234	762.38470	-1150.76025	-151.75592	929.80969	-934.76770	-148.37022	941.36871	-1093.09326	-336.48737	946.00037	-947.17249	-331.38190	949.90076	-1189.09497	-195.97061	595.31104	-1167.32690	-212.54077	462.30573	-1173.56226	-273.79370	282.27606	-1113.37598	-318.44650	70.22804	-1063.29321	-367.87314	43.02924	-1111.76660	-171.27919	33.35203	-858.85883	-104.01584	625.12500	-880.92639	-55.23335	472.57516	-877.00555	-130.17596	311.67801	-924.93994	-182.47699	113.09283	-982.85291	-227.83688	79.00780	-905.38806	-57.34685	51.12023	-1024.99658	-159.95847	1719.00757	-3101.95288	1973.14807	1023.46277	-3140.66260	2012.51746	1022.04437			 
114	1.130	-1114.11145	-149.52768	1677.09656	-1001.53973	-132.45746	1687.69556	-1100.34106	-257.34338	1614.79663	-980.70428	-242.40147	1624.25806	-1057.13879	-274.50372	1433.58276	-1046.00757	-310.24585	1142.06519	-1056.01648	-130.05078	1367.70801	-1060.81763	-86.96347	1212.01392	-979.09375	-329.57809	1239.22461	-1216.11133	-193.58028	1395.60596	-1304.50574	-204.76312	1212.71899	-1314.08423	-186.82446	1061.26416	-1338.75256	-107.30844	976.78210	-1323.70520	13.15827	908.13867	-1343.53943	-34.74311	878.48566	-1357.68311	36.97337	837.64099	-906.15710	-197.03099	1398.33972	-805.82849	-270.21246	1203.66516	-801.24780	-277.59357	1080.65283	-764.64532	-265.71335	963.09851	-774.38147	-198.69795	836.67584	-737.58881	-243.12030	845.09290	-737.60645	-218.29172	761.54407	-1150.77063	-144.11438	928.86792	-934.76373	-139.70976	940.92291	-1092.49805	-328.44113	945.86182	-946.58972	-322.82602	949.85498	-1188.76392	-190.99631	594.64044	-1167.25806	-209.36398	461.78986	-1173.59656	-272.20413	282.47571	-1113.30933	-318.18402	70.56272	-1063.25171	-367.73364	43.53972	-1111.71362	-171.21317	33.26658	-859.01898	-95.34564	624.81201	-881.87207	-46.04852	472.23273	-875.80511	-111.71114	307.95917	-922.58997	-152.93546	106.35163	-979.55695	-198.28439	70.33456	-905.73407	-24.18982	51.00941	-1024.08936	-150.70079	1718.61353	-3101.92236	1973.18079	1023.33478	-3140.76880	2012.49609	1021.96356			 
115	1.140	-1113.22388	-140.35861	1676.63501	-1000.68188	-123.19749	1687.17139	-1099.58813	-248.27946	1614.55627	-979.87469	-233.31171	1623.90771	-1056.59192	-265.58963	1433.12549	-1045.40283	-301.66739	1141.71143	-1055.59558	-121.30097	1367.19141	-1060.67493	-78.35948	1211.40466	-978.70337	-320.98584	1238.82874	-1215.54797	-184.87282	1395.39160	-1304.23657	-195.22481	1212.74341	-1314.27600	-175.99527	1061.40906	-1338.92932	-94.80722	978.43512	-1323.85071	26.94927	912.26917	-1343.65845	-20.33087	881.60748	-1357.65686	52.04553	842.08014	-905.62640	-188.30209	1397.69812	-805.68671	-262.38315	1203.13342	-801.27197	-270.42892	1080.15662	-764.79126	-259.21832	962.57953	-774.48810	-192.95334	835.74420	-737.94305	-237.53281	844.25830	-737.80261	-212.99628	760.69434	-1150.71545	-136.36403	927.94427	-934.61725	-130.80074	940.42352	-1091.72217	-320.28500	945.71564	-945.92944	-314.21274	949.79340	-1188.57996	-186.00198	594.18927	-1167.25220	-205.97911	461.49960	-1173.60205	-270.52988	282.76682	-1113.34058	-317.90762	70.95062	-1063.30640	-367.59384	44.20187	-1111.76428	-171.05560	33.13707	-859.44775	-87.61744	623.71735	-882.76575	-37.20050	471.92212	-874.55133	-94.14804	305.07431	-920.09753	-123.29412	100.46668	-976.48065	-167.49980	62.22576	-905.73889	8.80947	52.20422	-1023.33698	-141.52071	1717.91101	-3101.92554	1973.20752	1023.23651	-3140.63208	2012.57617	1021.98737			 
